<svg width="38" height="39" viewBox="0 0 38 39" fill="none" xmlns="http://www.w3.org/2000/svg">
<path d="M26.1976 38.3927H11.9115C10.4822 38.372 9.11334 37.8126 8.07871 36.8262C7.04407 35.8398 6.41989 34.4993 6.331 33.0726L4.63824 7.3279C4.62957 7.14124 4.65798 6.95471 4.72183 6.7791C4.78569 6.6035 4.88373 6.44229 5.01028 6.3048C5.14065 6.16232 5.29849 6.04767 5.47431 5.96775C5.65013 5.88783 5.84029 5.8443 6.03337 5.83976H32.0757C32.267 5.83934 32.4564 5.87826 32.632 5.95412C32.8076 6.02997 32.9658 6.14114 33.0966 6.2807C33.2274 6.42027 33.3282 6.58525 33.3926 6.7654C33.4569 6.94555 33.4836 7.13702 33.4708 7.3279L31.8525 33.0726C31.7626 34.512 31.128 35.8632 30.0776 36.8514C29.0271 37.8396 27.6398 38.3907 26.1976 38.3927ZM7.59591 8.63001L9.02824 32.9052C9.07556 33.6372 9.4001 34.3236 9.93577 34.8247C10.4714 35.3258 11.178 35.6039 11.9115 35.6024H26.1976C26.9298 35.5995 27.6339 35.32 28.1686 34.8197C28.7034 34.3195 29.0292 33.6356 29.0808 32.9052L30.5876 8.72302L7.59591 8.63001Z" fill="#A4BD57"/>
<path d="M35.7961 8.63001H2.31309C1.94308 8.63001 1.58823 8.48302 1.32659 8.22139C1.06495 7.95975 0.917969 7.60489 0.917969 7.23488C0.917969 6.86487 1.06495 6.51002 1.32659 6.24838C1.58823 5.98675 1.94308 5.83976 2.31309 5.83976H35.7961C36.1661 5.83976 36.521 5.98675 36.7826 6.24838C37.0442 6.51002 37.1912 6.86487 37.1912 7.23488C37.1912 7.60489 37.0442 7.95975 36.7826 8.22139C36.521 8.48302 36.1661 8.63001 35.7961 8.63001Z" fill="#A4BD57"/>
<path d="M24.6352 8.63001H13.4742C13.1057 8.62519 12.7537 8.47666 12.4931 8.21606C12.2325 7.95546 12.0839 7.6034 12.0791 7.23489V3.88659C12.1027 2.93198 12.4924 2.023 13.1676 1.34779C13.8428 0.672576 14.7518 0.282843 15.7064 0.259262H22.403C23.3735 0.283532 24.2961 0.686183 24.9738 1.38127C25.6515 2.07635 26.0307 3.00881 26.0303 3.97959V7.23489C26.0255 7.6034 25.877 7.95546 25.6164 8.21606C25.3558 8.47666 25.0037 8.62519 24.6352 8.63001ZM14.8694 5.83976H23.2401V3.97959C23.2401 3.75759 23.1519 3.54468 22.9949 3.38769C22.8379 3.23071 22.625 3.14252 22.403 3.14252H15.7064C15.4844 3.14252 15.2715 3.23071 15.1145 3.38769C14.9575 3.54468 14.8694 3.75759 14.8694 3.97959V5.83976ZM24.6352 30.952C24.2667 30.9472 23.9146 30.7987 23.654 30.5381C23.3934 30.2775 23.2449 29.9254 23.2401 29.5569V14.6756C23.2401 14.3055 23.3871 13.9507 23.6487 13.689C23.9104 13.4274 24.2652 13.2804 24.6352 13.2804C25.0052 13.2804 25.3601 13.4274 25.6217 13.689C25.8834 13.9507 26.0303 14.3055 26.0303 14.6756V29.5569C26.0255 29.9254 25.877 30.2775 25.6164 30.5381C25.3558 30.7987 25.0037 30.9472 24.6352 30.952ZM13.4742 30.952C13.1057 30.9472 12.7537 30.7987 12.4931 30.5381C12.2325 30.2775 12.0839 29.9254 12.0791 29.5569V14.6756C12.0791 14.3055 12.2261 13.9507 12.4877 13.689C12.7494 13.4274 13.1042 13.2804 13.4742 13.2804C13.8442 13.2804 14.1991 13.4274 14.4607 13.689C14.7224 13.9507 14.8694 14.3055 14.8694 14.6756V29.5569C14.8645 29.9254 14.716 30.2775 14.4554 30.5381C14.1948 30.7987 13.8427 30.9472 13.4742 30.952ZM19.0547 30.952C18.6862 30.9472 18.3342 30.7987 18.0736 30.5381C17.813 30.2775 17.6644 29.9254 17.6596 29.5569V14.6756C17.6596 14.3055 17.8066 13.9507 18.0682 13.689C18.3299 13.4274 18.6847 13.2804 19.0547 13.2804C19.4247 13.2804 19.7796 13.4274 20.0412 13.689C20.3029 13.9507 20.4498 14.3055 20.4498 14.6756V29.5569C20.445 29.9254 20.2965 30.2775 20.0359 30.5381C19.7753 30.7987 19.4232 30.9472 19.0547 30.952Z" fill="#A4BD57"/>
</svg>
