<svg width="26" height="26" viewBox="0 0 26 26" fill="none" xmlns="http://www.w3.org/2000/svg">
<g clip-path="url(#clip0_5163_3013)">
<mask id="mask0_5163_3013" style="mask-type:luminance" maskUnits="userSpaceOnUse" x="0" y="0" width="26" height="26">
<path d="M25.1847 13.0009C25.1847 14.6016 24.8694 16.1866 24.2569 17.6655C23.6443 19.1443 22.7465 20.4881 21.6146 21.6199C20.4827 22.7518 19.139 23.6496 17.6602 24.2622C16.1813 24.8748 14.5963 25.19 12.9956 25.19C11.3949 25.19 9.80986 24.8748 8.33101 24.2622C6.85215 23.6496 5.50843 22.7518 4.37657 21.6199C3.2447 20.4881 2.34686 19.1443 1.7343 17.6655C1.12174 16.1866 0.806457 14.6016 0.806458 13.0009C0.806458 9.76816 2.09066 6.6678 4.37657 4.3819C6.66247 2.096 9.76283 0.811787 12.9956 0.811787C16.2283 0.811787 19.3287 2.096 21.6146 4.3819C23.9005 6.6678 25.1847 9.76816 25.1847 13.0009Z" fill="white"/>
</mask>
<g mask="url(#mask0_5163_3013)">
<path d="M0.8125 25.1875V17.0625H25.1875V25.1875H0.8125Z" fill="#27AE60"/>
<path d="M0.8125 17.0625V8.9375H25.1875V17.0625H0.8125Z" fill="white"/>
<path d="M0.8125 8.9375V0.8125H25.1875V8.9375H0.8125Z" fill="#F39C12"/>
<path d="M12.9957 16.5567C14.9582 16.5567 16.5491 14.9657 16.5491 13.0033C16.5491 11.0408 14.9582 9.44983 12.9957 9.44983C11.0332 9.44983 9.44226 11.0408 9.44226 13.0033C9.44226 14.9657 11.0332 16.5567 12.9957 16.5567Z" fill="#000088"/>
<path d="M12.9957 16.1125C14.7128 16.1125 16.1049 14.7204 16.1049 13.0032C16.1049 11.2861 14.7128 9.89401 12.9957 9.89401C11.2785 9.89401 9.88641 11.2861 9.88641 13.0032C9.88641 14.7204 11.2785 16.1125 12.9957 16.1125Z" fill="white"/>
<path d="M12.9957 13.6251C13.3391 13.6251 13.6175 13.3467 13.6175 13.0032C13.6175 12.6598 13.3391 12.3814 12.9957 12.3814C12.6522 12.3814 12.3738 12.6598 12.3738 13.0032C12.3738 13.3467 12.6522 13.6251 12.9957 13.6251Z" fill="#000088"/>
<path d="M16.059 13.5633C16.1441 13.5746 16.2222 13.5147 16.2335 13.4296C16.2447 13.3444 16.1848 13.2663 16.0997 13.2551C16.0146 13.2438 15.9365 13.3037 15.9252 13.3888C15.914 13.4739 15.9738 13.5521 16.059 13.5633Z" fill="#000088"/>
<path d="M12.9957 16.1125L13.1023 14.2469L12.9957 13.3586L12.8891 14.2469L12.9957 16.1125Z" fill="#000088"/>
<path d="M15.8102 14.3375C15.8895 14.3704 15.9805 14.3328 16.0134 14.2535C16.0463 14.1742 16.0087 14.0832 15.9294 14.0503C15.85 14.0174 15.7591 14.055 15.7261 14.1343C15.6932 14.2136 15.7309 14.3046 15.8102 14.3375Z" fill="#000088"/>
<path d="M12.1906 16.0072L12.7766 14.2324L12.9037 13.3466L12.5706 14.1772L12.1906 16.0072Z" fill="#000088"/>
<path d="M15.3679 15.0195C15.436 15.0718 15.5336 15.059 15.5859 14.9909C15.6382 14.9228 15.6254 14.8252 15.5573 14.7729C15.4892 14.7206 15.3917 14.7334 15.3393 14.8015C15.287 14.8696 15.2998 14.9672 15.3679 15.0195Z" fill="#000088"/>
<path d="M11.4405 15.6955L12.4656 14.1332L12.8174 13.3105L12.2809 14.0266L11.4405 15.6955Z" fill="#000088"/>
<path d="M14.7651 15.5655C14.8173 15.6337 14.9149 15.6466 14.9831 15.5944C15.0512 15.5422 15.0641 15.4446 15.0119 15.3764C14.9597 15.3083 14.8621 15.2954 14.794 15.3476C14.7258 15.3998 14.7129 15.4974 14.7651 15.5655Z" fill="#000088"/>
<path d="M10.7968 15.2013L12.1915 13.9578L12.7444 13.2545L12.0408 13.8071L10.7968 15.2013Z" fill="#000088"/>
<path d="M14.0425 15.9358C14.0753 16.0152 14.1662 16.0529 14.2455 16.0201C14.3249 15.9872 14.3626 15.8963 14.3298 15.817C14.297 15.7376 14.206 15.6999 14.1267 15.7327C14.0474 15.7655 14.0096 15.8565 14.0425 15.9358Z" fill="#000088"/>
<path d="M10.3032 14.5575L11.9721 13.7171L12.6881 13.1806L11.8655 13.5324L10.3032 14.5575Z" fill="#000088"/>
<path d="M13.2469 16.1077C13.2581 16.1928 13.3361 16.2528 13.4213 16.2416C13.5064 16.2305 13.5664 16.1524 13.5553 16.0673C13.5441 15.9821 13.4661 15.9222 13.3809 15.9333C13.2958 15.9445 13.2358 16.0225 13.2469 16.1077Z" fill="#000088"/>
<path d="M9.99173 13.8075L11.8217 13.4279L12.6524 13.0952L11.7665 13.222L9.99173 13.8075Z" fill="#000088"/>
<path d="M12.4356 16.0665C12.4244 16.1517 12.4842 16.2298 12.5694 16.241C12.6545 16.2523 12.7326 16.1924 12.7438 16.1073C12.7551 16.0222 12.6952 15.944 12.6101 15.9328C12.525 15.9215 12.4469 15.9814 12.4356 16.0665Z" fill="#000088"/>
<path d="M9.88642 13.0033L11.752 13.1099L12.6403 13.0033L11.752 12.8966L9.88642 13.0033Z" fill="#000088"/>
<path d="M11.6615 15.817C11.6286 15.8963 11.6662 15.9872 11.7455 16.0201C11.8248 16.053 11.9158 16.0154 11.9487 15.9361C11.9816 15.8568 11.944 15.7659 11.8647 15.7329C11.7854 15.7 11.6944 15.7377 11.6615 15.817Z" fill="#000088"/>
<path d="M9.99255 12.1982L11.7668 12.7842L12.6525 12.9112L11.822 12.5782L9.99255 12.1982Z" fill="#000088"/>
<path d="M10.9777 15.3777C10.9254 15.4458 10.9382 15.5434 11.0063 15.5957C11.0744 15.648 11.172 15.6352 11.2243 15.5671C11.2766 15.499 11.2638 15.4014 11.1957 15.3491C11.1276 15.2968 11.03 15.3096 10.9777 15.3777Z" fill="#000088"/>
<path d="M10.3017 11.4502L11.864 12.4753L12.6867 12.8272L11.9706 12.2907L10.3017 11.4502Z" fill="#000088"/>
<path d="M10.4324 14.773C10.3642 14.8252 10.3513 14.9228 10.4036 14.991C10.4558 15.0592 10.5534 15.0721 10.6216 15.0198C10.6898 14.9676 10.7027 14.87 10.6504 14.8018C10.5982 14.7336 10.5006 14.7207 10.4324 14.773Z" fill="#000088"/>
<path d="M10.7961 10.8033L12.0401 12.1982L12.7439 12.7511L12.1909 12.0474L10.7961 10.8033Z" fill="#000088"/>
<path d="M10.0624 14.0498C9.98309 14.0826 9.94537 14.1735 9.97818 14.2529C10.011 14.3322 10.1019 14.37 10.1813 14.3372C10.2606 14.3043 10.2984 14.2134 10.2655 14.1341C10.2327 14.0547 10.1418 14.017 10.0624 14.0498Z" fill="#000088"/>
<path d="M11.4411 10.3102L12.2815 11.9793L12.818 12.6955L12.4662 11.8727L11.4411 10.3102Z" fill="#000088"/>
<path d="M9.89125 13.2545C9.8061 13.2657 9.74611 13.3437 9.75726 13.4289C9.76841 13.514 9.84647 13.574 9.93161 13.5629C10.0168 13.5517 10.0767 13.4737 10.0656 13.3885C10.0545 13.3034 9.97639 13.2434 9.89125 13.2545Z" fill="#000088"/>
<path d="M12.1914 9.99931L12.571 11.8293L12.9038 12.6599L12.777 11.7741L12.1914 9.99931Z" fill="#000088"/>
<path d="M9.93237 12.4432C9.84725 12.4319 9.76913 12.4918 9.75788 12.5769C9.74662 12.6621 9.80651 12.7402 9.89162 12.7514C9.97674 12.7627 10.0549 12.7028 10.0661 12.6177C10.0774 12.5326 10.0175 12.4544 9.93237 12.4432Z" fill="#000088"/>
<path d="M12.9957 9.89401L12.8891 11.7596L12.9957 12.6479L13.1023 11.7596L12.9957 9.89401Z" fill="#000088"/>
<path d="M10.1811 11.669C10.1018 11.6361 10.0108 11.6737 9.97793 11.753C9.94502 11.8323 9.98265 11.9233 10.062 11.9562C10.1413 11.9891 10.2323 11.9515 10.2652 11.8722C10.2981 11.7929 10.2605 11.7019 10.1811 11.669Z" fill="#000088"/>
<path d="M13.8008 9.99931L13.2147 11.7741L13.0877 12.6599L13.4207 11.8293L13.8008 9.99931Z" fill="#000088"/>
<path d="M10.6226 10.9871C10.5545 10.9348 10.4569 10.9476 10.4046 11.0157C10.3523 11.0838 10.3651 11.1814 10.4332 11.2337C10.5013 11.286 10.5989 11.2732 10.6512 11.2051C10.7035 11.137 10.6907 11.0394 10.6226 10.9871Z" fill="#000088"/>
<path d="M14.5501 10.3111L13.525 11.8734L13.1731 12.6961L13.7096 11.98L14.5501 10.3111Z" fill="#000088"/>
<path d="M11.2254 10.4408C11.1732 10.3727 11.0756 10.3598 11.0074 10.412C10.9393 10.4642 10.9264 10.5618 10.9786 10.63C11.0308 10.6981 11.1284 10.711 11.1966 10.6588C11.2647 10.6066 11.2776 10.509 11.2254 10.4408Z" fill="#000088"/>
<path d="M15.1945 10.8044L13.7998 12.0483L13.247 12.752L13.9506 12.1991L15.1945 10.8044Z" fill="#000088"/>
<path d="M11.9491 10.07C11.9163 9.99066 11.8254 9.95293 11.746 9.98575C11.6667 10.0186 11.6289 10.1095 11.6617 10.1888C11.6946 10.2682 11.7855 10.3059 11.8648 10.2731C11.9442 10.2403 11.9819 10.1494 11.9491 10.07Z" fill="#000088"/>
<path d="M15.6887 11.4486L14.0196 12.2891L13.3034 12.8256L14.1262 12.4737L15.6887 11.4486Z" fill="#000088"/>
<path d="M12.7444 9.89884C12.7333 9.81369 12.6552 9.75371 12.57 9.76485C12.4849 9.776 12.4249 9.85406 12.4361 9.93921C12.4472 10.0244 12.5253 10.0843 12.6104 10.0732C12.6956 10.062 12.7555 9.98399 12.7444 9.89884Z" fill="#000088"/>
<path d="M15.9996 12.199L14.1697 12.5786L13.339 12.9113L14.2248 12.7845L15.9996 12.199Z" fill="#000088"/>
<path d="M13.5557 9.93997C13.567 9.85485 13.5071 9.77673 13.422 9.76547C13.3369 9.75422 13.2587 9.8141 13.2475 9.89922C13.2362 9.98434 13.2961 10.0625 13.3812 10.0737C13.4664 10.085 13.5445 10.0251 13.5557 9.93997Z" fill="#000088"/>
<path d="M16.1049 13.0032L14.2394 12.8966L13.351 13.0032L14.2394 13.1099L16.1049 13.0032Z" fill="#000088"/>
<path d="M14.3308 10.1889C14.3637 10.1096 14.3261 10.0186 14.2468 9.98563C14.1674 9.95269 14.0765 9.9903 14.0435 10.0696C14.0106 10.1489 14.0482 10.2399 14.1275 10.2729C14.2068 10.3058 14.2978 10.2682 14.3308 10.1889Z" fill="#000088"/>
<path d="M15.9996 13.8092L14.2249 13.2226L13.339 13.0954L14.1696 13.4286L15.9996 13.8092Z" fill="#000088"/>
<path d="M15.0124 10.6301C15.0647 10.562 15.0519 10.4644 14.9838 10.4121C14.9157 10.3598 14.8181 10.3726 14.7658 10.4407C14.7135 10.5088 14.7263 10.6064 14.7944 10.6587C14.8625 10.711 14.9601 10.6982 15.0124 10.6301Z" fill="#000088"/>
<path d="M15.6887 14.5579L14.1262 13.5328L13.3034 13.1809L14.0196 13.7174L15.6887 14.5579Z" fill="#000088"/>
<path d="M15.5589 11.2331C15.6271 11.1809 15.64 11.0833 15.5878 11.0151C15.5355 10.9469 15.4379 10.934 15.3698 10.9862C15.3016 11.0385 15.2887 11.1361 15.3409 11.2043C15.3931 11.2724 15.4907 11.2854 15.5589 11.2331Z" fill="#000088"/>
<path d="M15.1945 15.2029L13.9506 13.8077L13.247 13.2546L13.7998 13.9585L15.1945 15.2029Z" fill="#000088"/>
<path d="M15.9284 11.9545C16.0078 11.9217 16.0455 11.8308 16.0127 11.7514C15.9798 11.6721 15.8889 11.6344 15.8096 11.6672C15.7302 11.7 15.6925 11.7909 15.7253 11.8702C15.7582 11.9496 15.8491 11.9873 15.9284 11.9545Z" fill="#000088"/>
<path d="M14.5501 15.6938L13.7097 14.0249L13.1732 13.3088L13.525 14.1315L14.5501 15.6938Z" fill="#000088"/>
<path d="M16.1001 12.752C16.1852 12.7408 16.2452 12.6628 16.2341 12.5776C16.2229 12.4925 16.1449 12.4325 16.0597 12.4436C15.9746 12.4548 15.9146 12.5328 15.9257 12.618C15.9369 12.7031 16.0149 12.7631 16.1001 12.752Z" fill="#000088"/>
<path d="M13.7999 16.0072L13.4204 14.1773L13.0876 13.3466L13.2144 14.2324L13.7999 16.0072Z" fill="#000088"/>
</g>
</g>
<defs>
<clipPath id="clip0_5163_3013">
<rect width="26" height="26" fill="white"/>
</clipPath>
</defs>
</svg>
