<svg width="155" height="47" viewBox="0 0 155 47" fill="none" xmlns="http://www.w3.org/2000/svg">
<rect y="4.14706" width="38.7377" height="38.8869" rx="8" fill="#A4BD57"/>
<mask id="mask0_5332_871" style="mask-type:alpha" maskUnits="userSpaceOnUse" x="0" y="4" width="39" height="40">
<rect y="4.14709" width="38.7377" height="38.8869" rx="5.95238" fill="#A4BD57"/>
</mask>
<g mask="url(#mask0_5332_871)">
<path d="M25.0152 22.6646C25.7716 25.4983 24.0932 28.4117 21.2665 29.1721C18.4398 29.9324 15.5352 28.2517 14.7788 25.418C14.0225 22.5844 15.7008 19.6709 18.5275 18.9106C21.3542 18.1502 24.2589 19.831 25.0152 22.6646Z" fill="white"/>
<path fill-rule="evenodd" clip-rule="evenodd" d="M-0.441421 7.06177C-1.15944 7.78169 -1.15985 8.9485 -0.442327 9.66791L8.56669 18.7007C7.3486 21.2922 7.00337 24.3125 7.79956 27.2954C9.58732 33.9931 16.4529 37.9657 23.1342 36.1686C29.8155 34.3714 33.7825 27.485 31.9948 20.7873C30.207 14.0896 23.3415 10.117 16.6601 11.9141C15.6542 12.1847 14.7098 12.5706 13.8373 13.0539L5.00894 4.20226C4.29142 3.48285 3.12768 3.48325 2.40966 4.20317L-0.441421 7.06177ZM21.7647 31.0379C25.6193 30.0011 27.908 26.0282 26.8766 22.1641C25.8452 18.3001 21.8843 16.0082 18.0297 17.045C14.1751 18.0818 11.8864 22.0547 12.9178 25.9188C13.9492 29.7828 17.9101 32.0748 21.7647 31.0379Z" fill="white"/>
</g>
<path d="M54.793 37.5636V13.0286H70.6356V16.6388H59.2794V23.5086H68.4625V27.0486H59.2794V37.5636H54.793ZM85.8324 37.9842C83.3789 37.9842 81.2292 37.4468 79.3832 36.3719C77.5606 35.2971 76.1235 33.8133 75.072 31.9206C74.0439 30.0045 73.5298 27.7964 73.5298 25.2961C73.5298 22.7959 74.0439 20.5994 75.072 18.7067C76.1235 16.7907 77.5606 15.2952 79.3832 14.2203C81.2292 13.1455 83.3789 12.608 85.8324 12.608C88.2625 12.608 90.4006 13.1455 92.2465 14.2203C94.0925 15.2952 95.5296 16.7907 96.5577 18.7067C97.5858 20.5994 98.0999 22.7959 98.0999 25.2961C98.0999 27.7964 97.5858 30.0045 96.5577 31.9206C95.5296 33.8133 94.0925 35.2971 92.2465 36.3719C90.4006 37.4468 88.2625 37.9842 85.8324 37.9842ZM85.8324 33.9535C88.1691 33.9535 90.0267 33.1824 91.4053 31.6402C92.8073 30.098 93.5083 27.9833 93.5083 25.2961C93.5083 22.609 92.8073 20.4943 91.4053 18.9521C90.0267 17.4099 88.1691 16.6388 85.8324 16.6388C83.4957 16.6388 81.6264 17.4099 80.2244 18.9521C78.8224 20.4943 78.1214 22.609 78.1214 25.2961C78.1214 27.9833 78.8224 30.098 80.2244 31.6402C81.6264 33.1824 83.4957 33.9535 85.8324 33.9535ZM113.796 37.9842C111.342 37.9842 109.192 37.4468 107.346 36.3719C105.524 35.2971 104.087 33.8133 103.035 31.9206C102.007 30.0045 101.493 27.7964 101.493 25.2961C101.493 22.7959 102.007 20.5994 103.035 18.7067C104.087 16.7907 105.524 15.2952 107.346 14.2203C109.192 13.1455 111.342 12.608 113.796 12.608C116.226 12.608 118.364 13.1455 120.21 14.2203C122.056 15.2952 123.493 16.7907 124.521 18.7067C125.549 20.5994 126.063 22.7959 126.063 25.2961C126.063 27.7964 125.549 30.0045 124.521 31.9206C123.493 33.8133 122.056 35.2971 120.21 36.3719C118.364 37.4468 116.226 37.9842 113.796 37.9842ZM113.796 33.9535C116.132 33.9535 117.99 33.1824 119.369 31.6402C120.771 30.098 121.472 27.9833 121.472 25.2961C121.472 22.609 120.771 20.4943 119.369 18.9521C117.99 17.4099 116.132 16.6388 113.796 16.6388C111.459 16.6388 109.59 17.4099 108.188 18.9521C106.786 20.4943 106.085 22.609 106.085 25.2961C106.085 27.9833 106.786 30.098 108.188 31.6402C109.59 33.1824 111.459 33.9535 113.796 33.9535ZM130.262 37.5636V13.0286H138.639C141.513 13.0286 143.873 13.5427 145.719 14.5708C147.589 15.5756 148.967 17.001 149.855 18.8469C150.767 20.6695 151.222 22.8193 151.222 25.2961C151.222 27.773 150.767 29.9344 149.855 31.7804C148.967 33.603 147.589 35.0283 145.719 36.0565C143.873 37.0612 141.513 37.5636 138.639 37.5636H130.262ZM134.749 33.7081H138.429C140.485 33.7081 142.109 33.381 143.301 32.7267C144.493 32.0491 145.346 31.0911 145.86 29.8526C146.374 28.5908 146.631 27.072 146.631 25.2961C146.631 23.5436 146.374 22.0365 145.86 20.7747C145.346 19.5129 144.493 18.5432 143.301 17.8655C142.109 17.1879 140.485 16.8491 138.429 16.8491H134.749V33.7081Z" fill="black"/>
</svg>
